<mxfile host="drawio-plugin" modified="2024-03-23T08:10:22.417Z" agent="5.0 (Windows NT 10.0; Win64; x64) AppleWebKit/537.36 (KHTML, like Gecko) Chrome/111.0.0.0 Safari/537.36" etag="ZwBqosSp0eSn9lRD2uDK" version="20.5.3" type="embed"><diagram id="23iRSUPoRavnBvh4doch" name="Page-1"><mxGraphModel dx="897" dy="700" grid="1" gridSize="10" guides="1" tooltips="1" connect="1" arrows="1" fold="1" page="1" pageScale="1" pageWidth="827" pageHeight="1169" math="0" shadow="0"><root><mxCell id="0"/><mxCell id="1" parent="0"/><mxCell id="2" value="&lt;p style=&quot;margin:0px;margin-top:4px;text-align:center;&quot;&gt;&lt;i&gt;&amp;lt;&amp;lt;Interface&amp;gt;&amp;gt;&lt;/i&gt;&lt;br&gt;&lt;b&gt;FlightControlCenter&lt;/b&gt;&lt;/p&gt;&lt;hr size=&quot;1&quot;&gt;&lt;p style=&quot;margin:0px;margin-left:4px;&quot;&gt;+ add(plane, Plane)&lt;br style=&quot;padding: 0px; margin: 0px;&quot;&gt;+ remove(plane, Plane)&lt;br&gt;&lt;/p&gt;&lt;p style=&quot;margin:0px;margin-left:4px;&quot;&gt;+ recieve(plane: Plane, msg: String)&lt;br&gt;+ send(plane: Plane, msg: String): Type&lt;/p&gt;&lt;p style=&quot;margin:0px;margin-left:4px;&quot;&gt;+ sendAll( msg: String)&lt;br&gt;&lt;/p&gt;" style="verticalAlign=top;align=left;overflow=fill;fontSize=12;fontFamily=Helvetica;html=1;" parent="1" vertex="1"><mxGeometry x="480" y="80" width="280" height="130" as="geometry"/></mxCell><mxCell id="3" value="Actor" style="shape=umlActor;verticalLabelPosition=bottom;verticalAlign=top;html=1;outlineConnect=0;" parent="1" vertex="1"><mxGeometry x="120" y="40" width="60" height="110" as="geometry"/></mxCell><mxCell id="4" value="FlightDispatcher" style="swimlane;fontStyle=1;align=center;verticalAlign=top;childLayout=stackLayout;horizontal=1;startSize=26;horizontalStack=0;resizeParent=1;resizeParentMax=0;resizeLast=0;collapsible=1;marginBottom=0;" parent="1" vertex="1"><mxGeometry x="480" y="300" width="280" height="180" as="geometry"/></mxCell><mxCell id="5" value="- planes: Set&lt;Plane&gt;" style="text;strokeColor=none;fillColor=none;align=left;verticalAlign=top;spacingLeft=4;spacingRight=4;overflow=hidden;rotatable=0;points=[[0,0.5],[1,0.5]];portConstraint=eastwest;" parent="4" vertex="1"><mxGeometry y="26" width="280" height="24" as="geometry"/></mxCell><mxCell id="6" value="" style="line;strokeWidth=1;fillColor=none;align=left;verticalAlign=middle;spacingTop=-1;spacingLeft=3;spacingRight=3;rotatable=0;labelPosition=right;points=[];portConstraint=eastwest;strokeColor=inherit;" parent="4" vertex="1"><mxGeometry y="50" width="280" height="8" as="geometry"/></mxCell><mxCell id="7" value="+ FlightDispatcher(): FlightDispatcher&#10;&#10;+ add(plane, Plane)&#10;+ remove(plane, Plane)&#10;+ recieve(plane: Plane, msg: String)&#10;+ send(plane: Plane, msg: String)&#10;+ sendAll(msg: String)" style="text;strokeColor=none;fillColor=none;align=left;verticalAlign=top;spacingLeft=4;spacingRight=4;overflow=hidden;rotatable=0;points=[[0,0.5],[1,0.5]];portConstraint=eastwest;" parent="4" vertex="1"><mxGeometry y="58" width="280" height="122" as="geometry"/></mxCell><mxCell id="8" value="" style="endArrow=block;dashed=1;endFill=0;endSize=12;html=1;rounded=0;exitX=0.5;exitY=0;exitDx=0;exitDy=0;" parent="1" source="4" target="2" edge="1"><mxGeometry width="160" relative="1" as="geometry"><mxPoint x="540" y="100" as="sourcePoint"/><mxPoint x="700" y="100" as="targetPoint"/></mxGeometry></mxCell><mxCell id="9" value="Plane" style="swimlane;fontStyle=1;align=center;verticalAlign=top;childLayout=stackLayout;horizontal=1;startSize=26;horizontalStack=0;resizeParent=1;resizeParentMax=0;resizeLast=0;collapsible=1;marginBottom=0;" parent="1" vertex="1"><mxGeometry x="80" y="300" width="300" height="180" as="geometry"/></mxCell><mxCell id="10" value="+ model: String&#10;- flightConstrolCenter: FlightControlCenter" style="text;strokeColor=none;fillColor=none;align=left;verticalAlign=top;spacingLeft=4;spacingRight=4;overflow=hidden;rotatable=0;points=[[0,0.5],[1,0.5]];portConstraint=eastwest;" parent="9" vertex="1"><mxGeometry y="26" width="300" height="44" as="geometry"/></mxCell><mxCell id="11" value="" style="line;strokeWidth=1;fillColor=none;align=left;verticalAlign=middle;spacingTop=-1;spacingLeft=3;spacingRight=3;rotatable=0;labelPosition=right;points=[];portConstraint=eastwest;strokeColor=inherit;" parent="9" vertex="1"><mxGeometry y="70" width="300" height="8" as="geometry"/></mxCell><mxCell id="12" value="+ Plane(brand: String, model:String): Plane&#10;&#10;+ register(flightControlCenter: FlightControlCenter)&#10;+ unregister()&#10;+ send(msg: String)&#10;+ receive(msg: String)" style="text;strokeColor=none;fillColor=none;align=left;verticalAlign=top;spacingLeft=4;spacingRight=4;overflow=hidden;rotatable=0;points=[[0,0.5],[1,0.5]];portConstraint=eastwest;" parent="9" vertex="1"><mxGeometry y="78" width="300" height="102" as="geometry"/></mxCell><mxCell id="18" value="Use" style="endArrow=open;endSize=12;dashed=1;html=1;rounded=0;exitX=1;exitY=0.3333333333333333;exitDx=0;exitDy=0;exitPerimeter=0;entryX=0.004;entryY=0.182;entryDx=0;entryDy=0;entryPerimeter=0;edgeStyle=orthogonalEdgeStyle;" parent="1" source="3" target="2" edge="1"><mxGeometry width="160" relative="1" as="geometry"><mxPoint x="50" y="260" as="sourcePoint"/><mxPoint x="210" y="260" as="targetPoint"/></mxGeometry></mxCell><mxCell id="19" value="0.*" style="endArrow=open;html=1;endSize=12;startArrow=diamondThin;startSize=14;startFill=0;edgeStyle=orthogonalEdgeStyle;align=left;verticalAlign=bottom;rounded=0;exitX=0;exitY=0.5;exitDx=0;exitDy=0;" parent="1" source="2" target="9" edge="1"><mxGeometry x="-0.9012" y="-5" relative="1" as="geometry"><mxPoint x="330" y="270" as="sourcePoint"/><mxPoint x="490" y="270" as="targetPoint"/><mxPoint as="offset"/></mxGeometry></mxCell></root></mxGraphModel></diagram></mxfile>